# xmcd
#
# Track frame offsets:
#	150
#	18702
#	40922
#	60710
#	83915
#	100797
#	116770
#	134755
#	155090
#	173615
#	191282
#	216657
#	235965
#
# Disc length: 3413 seconds
#
# Revision: 0
# Processed by: cddbd v1.4PL0 Copyright (c) Steve Scherf et al.
# Submitted via: dBpowerAMP V4.0
#
DISCID=bb0d530d
DTITLE=2pac - Untill The End Of Time (Disk2)
DYEAR=1900
DGENRE=Rap
TTITLE0=My Closest Roaddogz
TTITLE1=****** Nature [Remix]
TTITLE2=When Thugz Cry
TTITLE3=U Don't Have 2 Worry
TTITLE4=This Ain't Livin'
TTITLE5=Why U Turn on Me
TTITLE6=Lastonesleft
TTITLE7=Thug n U Thug n Me
TTITLE8=Words 2 My First Born
TTITLE9=Let Em Have It [Remix]
TTITLE10=Runnin on E
TTITLE11=When I Get Free
TTITLE12=Until the End of Time [RP Remix]
EXTD=the allbume isnt rare or anything, im nick (psykoarachnid) \n
EXTT0=
EXTT1=
EXTT2=
EXTT3=
EXTT4=
EXTT5=
EXTT6=
EXTT7=
EXTT8=
EXTT9=
EXTT10=
EXTT11=
EXTT12=
PLAYORDER=
